<svg viewBox="0 0 1024 1024" xmlns="http://www.w3.org/2000/svg"><path d="M137 0h750q137 0 137 137v750q0 137-137 137H137Q0 1024 0 887V137Q0 0 137 0Z" fill="#fff"/><path d="M809 728c-81 60-197 91-297 91a538 538 0 0 1-363-138c-8-7 0-16 8-11a731 731 0 0 0 363 96 723 723 0 0 0 277-56c13-6 25 9 12 18z" fill="#febd69"/><path d="M842 690c-10-13-68-6-94-3-8 1-9-6-2-11 46-32 121-23 130-12s-2 87-45 123c-7 5-13 2-10-5 10-24 31-79 21-92z" fill="#febd69"/><path d="M719 622c-16-22-34-41-34-82V401c0-58 4-112-39-152-34-33-90-44-133-44-85 0-179 31-199 136a16 16 0 0 0 14 17l86 10a19 19 0 0 0 15-17 68 68 0 0 1 71-54 59 59 0 0 1 50 24c13 18 11 43 11 64v11c-51 6-120 10-167 31a151 151 0 0 0-94 145c0 92 58 138 132 138 63 0 98-15 147-64a217 217 0 0 0 51 59 18 18 0 0 0 21-2l68-59a17 17 0 0 0 0-22zm-174-40a72 72 0 0 1-62 40c-34 0-54-26-54-64 0-76 69-89 132-89v19c0 35 1 63-16 94z"/></svg>