<svg viewBox="0 0 1131 1024" xmlns="http://www.w3.org/2000/svg"><path d="M236 8a81 81 0 0 1 68 0 168 168 0 0 1 42 30l161 142h116L784 38a169 169 0 0 1 42-30 81 81 0 0 1 107 66 81 81 0 0 1-18 54 451 451 0 0 1-35 33 233 233 0 0 1-23 18h101a171 171 0 0 1 118 53 172 172 0 0 1 55 119v463a327 327 0 0 1-5 71 179 179 0 0 1-80 112 173 173 0 0 1-93 26H213a342 342 0 0 1-72-4 178 178 0 0 1-112-80 173 173 0 0 1-27-93V387a361 361 0 0 1 0-66 177 177 0 0 1 161-144h106c-17-12-32-27-47-39A82 82 0 0 1 236 8m-19 312a81 81 0 0 0-64 59 109 109 0 0 0 0 30v382a81 81 0 0 0 56 80 106 106 0 0 0 35 6h655a81 81 0 0 0 77-48 113 113 0 0 0 8-53V421a135 135 0 0 0 0-38 81 81 0 0 0-53-55 130 130 0 0 0-50-8H255a269 269 0 0 0-38 0z" fill="#20B0E3"/><path d="M349 446a79 79 0 0 1 84 78v81a80 80 0 0 1-148 42 105 105 0 0 1-10-55v-80a81 81 0 0 1 70-68zm417 0a81 81 0 0 1 86 75v82a94 94 0 0 1-12 53 81 81 0 0 1-133 0 96 96 0 0 1-13-57v-81a81 81 0 0 1 70-71z" fill="#20B0E3"/></svg>