<svg viewBox="0 0 1024 1024" xmlns="http://www.w3.org/2000/svg"><path d="M524 916c-149 1-284-7-418-32C38 872-1 826 0 763c1-18 7-28 26-27h43c17 0 29 5 35 24 7 26 27 37 53 41a2380 2380 0 0 0 714-3c19-3 35-12 39-31 7-29 26-32 51-32 65 1 67 3 50 64-10 38-32 66-72 78-63 19-128 24-193 30-78 8-157 13-222 9zm1-840c116-8 243 6 369 26 74 12 110 31 125 119 5 24-5 33-28 33l-43-3c-18 1-29-6-35-23-9-24-28-36-52-39-149-20-299-32-450-24-86 5-173 16-259 25-21 2-39 13-46 33-8 26-24 31-47 29a254 254 0 0 0-31-1c-20 1-27-8-27-28 0-54 33-99 86-111 140-31 283-40 438-36zM412 498l-1 124c0 14-2 28-5 42-4 18-32 37 7 50 10 4 7 23 3 35-3 12-15 15-25 14-29-2-61 3-79-30-6-9-15-10-25-10l-31-2c-95-14-106-27-106-123V356c0-43 16-64 57-77 52-16 102-14 153 3 35 12 50 34 51 76l1 140zm-106-1h1V364c0-19-3-33-27-33-21 0-29 11-29 31v266c0 20 6 36 29 36 24 0 26-18 26-37V497zm434-75c13-42 25-74 33-107 7-25 19-35 46-35 80 1 69 5 48 65-19 52-35 106-58 157-23 52-15 105-17 158-1 18 7 41-16 50-24 8-51 3-76-3-6-2-8-9-8-16l-1-6c19-131-46-243-84-361-12-38-10-43 30-43h28c22-3 34 7 40 28l35 113zm283 77v177c0 24-7 35-34 36-67 1-67 2-67-67 0-108 1-217-1-325 0-30 10-40 40-40 61 1 62 0 61 61v158h1zm-460 1 1 183c0 20-7 27-26 28-76 6-76 6-76-69V326c0-42 3-45 43-45h19c29-4 40 9 39 39v180zM96 559l1 121c0 22-9 31-32 32-65 2-65 3-65-63V445c0-26 9-35 34-35 74 0 62-5 62 59v90zm0-228c0 50 0 50-45 50-51 0-51 0-51-51 0-49 0-49 50-49 46 0 46 0 46 50z" fill="#42BD56"/></svg>