<svg viewBox="0 0 1024 1024" xmlns="http://www.w3.org/2000/svg"><path d="M1009 716V408c0-28-18-53-46-63l-101-28-148 302-152-386-160-43c-8-3-16-3-23-3-46 0-79 36-79 79v458c0 40 33 73 74 73h7l64-5h-5V312l188 460 140-13 180-353v257c0 91-68 168-162 180l-453 41h-10c-76 0-137-61-137-135V284c0-51-3-97 33-140a150 150 0 0 1 162-46l522 145h7c16 0 28-13 28-28 0-13-7-23-20-25L358 37c-28-10-58-15-89-15A248 248 0 0 0 18 266v524c0 124 104 226 231 226h20l506-48a254 254 0 0 0 234-252zm0 0" fill="#F06000"/></svg>