<svg viewBox="0 0 1024 1024" xmlns="http://www.w3.org/2000/svg"><path d="M512 0a512 512 0 0 0-206 981c-1-36 0-79 9-118l66-279s-16-32-16-81c0-76 44-132 99-132 46 0 69 35 69 77 0 46-30 116-46 181-12 55 28 99 81 99 97 0 162-125 162-272 0-113-75-196-213-196a242 242 0 0 0-251 245c0 44 13 76 33 100 10 11 11 16 8 29l-11 41c-3 13-14 17-25 12-72-29-105-107-105-195 0-145 122-320 365-320 196 0 325 142 325 293 0 201-112 351-277 351-55 0-107-30-125-64 0 0-29 118-36 141-10 39-32 79-51 110A513 513 0 1 0 512 0" fill="#CC2127"/></svg>