<svg viewBox="0 0 1024 1024" xmlns="http://www.w3.org/2000/svg"><path d="M662 683c-35 0-65-29-65-64s30-64 65-64 63 29 63 64-28 64-63 64m13 125c-35 31-88 45-162 45h-2c-74 0-127-14-162-45a22 22 0 0 1 0-33 30 30 0 0 1 38 0c24 21 65 31 124 31h2c59 0 100-10 124-31a30 30 0 0 1 38 0 22 22 0 0 1 0 33M299 619c0-35 29-64 64-64s64 29 64 64a64 64 0 0 1-64 64c-35 0-64-29-64-64m554-448a43 43 0 0 1 0 85 43 43 0 0 1 0-85m171 353c0-71-55-128-123-128-29 0-56 10-78 28-75-49-170-78-272-85l53-175 147 36c3 56 48 100 102 100 57 0 103-49 103-108S910 85 853 85c-39 0-74 24-91 58l-170-41a28 28 0 0 0-33 19l-66 218c-110 2-214 32-294 84a119 119 0 0 0-76-27C55 396 0 453 0 524c0 43 21 82 53 105a234 234 0 0 0-2 31c0 88 50 170 139 231 86 58 200 90 320 90s234-32 320-90c89-61 139-143 139-231l-2-28a129 129 0 0 0 57-108" fill="#FF4500"/></svg>