<svg viewBox="0 0 1024 1024" xmlns="http://www.w3.org/2000/svg"><path d="M349 248c35-59 47-118 47-118l101 40-30 57s8 7 33 4 193-88 308-68c116 20 187 112 187 184v344s-12 105-102 142c-89 37-225 9-225 9l7-57s82 19 132 2c52-16 66-56 66-56V319s-7-42-55-71c-47-29-71-26-122-19-51 8-129 44-129 44l-43 87h295v59H638v74h188v51l-184 7v140l88-38-8-61 72-15 52 140-87 40-11-49s-165 70-231 75c-66 6-132-10-163-55-32-46-24-137-24-137l117 3s-9 52 14 85 76 24 76 24V548l-182-6v-49h184l-2-74-56-11s-47 73-79 71c-30-2-34-44-34-44l99-125-54-5-82 97-62-55s45-40 80-99zm-209 77-62 89s132 66 144 120c10 53-182 213-182 213l138 101s142-252 131-334c-11-84-169-189-169-189zm74-37c45 0 81-37 81-83 0-45-36-82-81-82s-81 37-81 82c0 46 36 83 81 83z" fill="#FD7E2B"/></svg>