<svg viewBox="0 0 1024 1024" xmlns="http://www.w3.org/2000/svg"><path d="M328 92c28-2 56 3 82 13 58 20 115 46 169 74 92 49 179 105 263 167 36 28 74 56 103 92 18 20 30 48 28 77-5 33-26 61-49 84-92 92-192 177-302 246-56 36-115 66-177 89-38 16-81 29-122 23-26-2-49-12-67-33-15-18-23-38-28-61v-3l56-15c77-21 154-54 225-90 77-41 151-87 221-141 23-18 48-35 58-64 11-20 8-46-5-64-12-23-33-41-51-56-23-18-48-36-74-49-49-30-100-56-151-84-59-31-120-56-182-77-28-8-56-18-84-25 2-13 7-26 12-39 16-36 44-59 75-64z" fill="#10ABF2"/><path d="M156 197c26-13 56-10 85-5-11 38-16 79-21 118 0 18-2 33-5 51-3 20-3 43-5 64 0 26-3 49-3 74-2 23 0 49-2 72 0 36 0 72 2 107 3 54 5 110 13 164v8c-25 5-56 10-79-8s-31-48-39-77c-12-84-20-176-20-268 0-49 5-95 13-141 5-39 13-77 25-113 5-20 18-38 36-46z" fill="#FF8F21"/><path d="M241 189h5l84 26c62 21 123 49 182 77 51 28 102 54 151 84 26 16 51 31 74 49 21 15 39 33 51 56 11 18 13 44 6 64-13 28-39 46-59 64-72 57-146 103-223 144-72 38-146 69-225 89l-57 16-10 2c0-5 0-10-2-15-8-54-11-110-13-164-3-36-3-72-3-108 0-23 0-48 3-71l2-74c3-21 3-44 5-64l6-52c7-41 12-82 23-123m105 144c-11 2-16 15-16 25v318c0 10 3 23 10 25 11 3 21 0 29-7l215-154c10-8 18-18 18-31s-11-20-21-28c-72-48-146-97-217-146-3 0-11-5-18-2z" fill="#7DE621"/><path d="M346 333c7-3 15 2 20 5l218 146c10 5 20 15 20 28s-8 23-18 31L371 696c-7 5-18 11-28 8-10-5-13-18-10-26V553c-3-49 0-95 0-143-3-16-3-31 0-49-3-13 2-26 13-28z" fill="#FFF"/></svg>