<svg viewBox="0 0 1024 1024" xmlns="http://www.w3.org/2000/svg"><path d="M261 34h523a205 205 0 0 1 205 205v546a205 205 0 0 1-205 205H261A205 205 0 0 1 56 785V239A205 205 0 0 1 261 34z" fill="#FFF"/><path d="m11 215 955-60-11 598-944 59V215z" fill="#E81A19"/><path d="M698 657h-58v-96H500v-35h140v-24h58v24h140v35H698v96zm-23-209-128 66h-47v-36h23l102-50-55-22 23-36 81 34 94-46v-23l-175 11-46 60-47-24 70-107 35 24 222-12v83l-106 54 71 30h46v36h-58l-105-42zM337 573h70l58 108h-70l-58-108zm-93 120H116v-36h58l81-93-139 9v-47l198-12V323l90 14-32 177h82v36l-123 8-87 135zm-82-263h70l35 60h-70l-35-60zm-11-84h69l35 60h-70l-34-60zm454 239-47 84h-58l35-84h70zm256 72h-69l-47-84h58l58 84z" fill="#FFF"/></svg>