<svg xmlns="http://www.w3.org/2000/svg" viewBox="0 0 1024 1024"><path d="M382 699c-8 0-16 7-17 17-1 9 5 16 14 16 8 0 16-8 18-17 0-10-6-17-15-16zm-58 10c-27 1-51 25-55 53-3 28 15 51 42 50 28 0 53-24 56-53s-16-51-43-50z" fill="#FFF"/><path d="M766 674c-12-128-183-216-383-197C184 496 32 615 44 743c12 127 184 215 383 196 200-19 352-138 339-265zm-251 49c-9 83-89 151-176 151-83 0-139-65-127-143 11-76 84-141 165-145 84-5 147 56 138 137z" fill="#FFF"/><path d="M1022 314A318 318 0 0 0 735 43c-19-2-38 10-40 29-3 18 10 36 28 40 68 15 197 35 231 226 3 19 19 40 43 34 17-3 33-13 25-58zm-302-53a24 24 0 0 0-27 18c-4 13 3 28 17 31 28 6 42 25 46 46 0 0 4 14 17 18 14 4 38-6 31-32-7-36-43-74-84-81z" fill="#E79014"/><path d="M738 160c-30-5-44 17-44 34s12 29 35 35c59 17 98 43 108 112 3 20 22 31 35 31 18 0 32-15 32-33v-2c-11-88-77-161-166-177z" fill="#E79014"/><path d="M732 697c-12 125-189 224-381 219-178-4-296-98-277-207 20-105 165-196 336-206 183-11 333 74 322 194zm-28-198c-7 0-10 1-12-2l4-14c11-27 28-82-7-113-23-20-120-36-222 36-5 3-14 11-18 9-4-1-5-6-6-16-3-50 39-191-71-179C256 239 98 424 53 513c-159 317 71 445 297 452 245 7 494-132 526-318 22-124-124-149-172-148z" fill="#D62629"/><path d="M377 586c-81 4-154 69-165 145-12 78 44 143 127 143 87 0 167-68 176-151 9-81-54-142-138-137zm-10 173c-3 29-28 53-56 53-27 1-45-22-42-50 4-28 28-52 55-53s46 21 43 50zm12-27c-9 0-15-7-14-16 1-10 9-17 17-17 9-1 15 6 15 16-2 9-10 17-18 17z" fill="#030000"/></svg>