<svg viewBox="0 0 1024 1024" xmlns="http://www.w3.org/2000/svg"><path d="m740 556 2-2 1-2v-1c6-10 9-22 9-34v-3c0-12-3-24-9-35v-1l-1-1-2-2v-1l-5-7-8-9-5-4-1-1-4-3v-1L470 284a79 79 0 0 0-111 22 80 80 0 0 0 22 110l149 99-149 100a80 80 0 0 0 89 132l247-166 2-1 2-2 1-1 5-4 8-9 5-8zm0 0" fill="#FF4A4A"/><path d="M976 318A496 496 0 0 0 515 12a501 501 0 1 0 461 305zM515 854a342 342 0 1 1 1-684 342 342 0 0 1-1 684zm0 0" fill="#38CEFF"/><path d="M905 689a79 79 0 1 0-91 130 79 79 0 0 0 91-130zM119 349a79 79 0 1 0 86-133 79 79 0 0 0-86 133zm0 0" fill="#0B99FF"/><path d="M752 514c0-12-3-24-9-35v-1l-1-1-2-2v-1l-2-3-3-4-8-9-5-4-1-1-2-2-2-1a78 78 0 0 0-89 0l-99 66 99 66a79 79 0 0 0 89-1l2-1 2-2 1-1 5-4 8-9 3-4 2-3v-1l2-2 1-1v-1c6-11 9-23 9-35v-3zm0 0" fill="#F5001A"/></svg>